<?xml version="1.0" encoding="UTF-8"?>
<svg clip-rule="evenodd" viewBox="0 0 620 170" xmlns="http://www.w3.org/2000/svg">
<g>
<title>background</title>
<rect x="-1" y="-1" width="620" height="170" fill="none"/>
</g>
<g>
<title>Layer 1</title>
<g transform="matrix(1.1984 0 0 1.1984 -264.15 465.19)">
<g transform="matrix(.90881 0 0 .93915 -380.09 -660.68)">
<ellipse cx="737.79" cy="364.7" rx="77.023" ry="74.535" fill="#ed502d"/>
</g>
<g transform="translate(-.53374 -.33076)">
<g transform="matrix(1.25 0 0 1.2794 221.09 -397.94)">
<path d="m86.058 35.039c4.912 0 8.896 3.984 8.896 8.895-9.99e-4 4.911-3.985 8.895-8.896 8.895-4.91 0-8.893-3.984-8.893-8.895-0.001999-4.911 3.981-8.895 8.893-8.895" fill="#fff"/>
</g>
<g transform="matrix(1.25 0 0 1.2794 221.09 -397.94)">
<path d="m55.889 30.568c5.708 0 10.337 4.63 10.337 10.336-9.99e-4 5.708-4.629 10.337-10.337 10.337-5.707 0-10.334-4.629-10.334-10.337-0.001999-5.706 4.626-10.336 10.334-10.336" fill="#fff"/>
</g>
<g transform="matrix(1.25 0 0 1.2794 221.09 -397.94)">
<path d="m25.719 35.039c4.912 0 8.895 3.984 8.895 8.895-0.001003 4.911-3.984 8.895-8.895 8.895-4.911 0-8.894-3.984-8.894-8.895-9.99e-4 -4.911 3.982-8.895 8.894-8.895" fill="#fff"/>
</g>
<g transform="matrix(1.25 0 0 1.2794 221.09 -397.94)">
<path d="m36.877 70.871 0.036003 0.274-4.9 3.484c-0.298-4.451-0.318-8.955 0.247-13.051l-0.643-0.092003c-0.596 4.257-0.555 8.959-0.228 13.586l-0.021999 0.016006 1.531 13.279c-3.982 2.397-10.376 2.397-14.359 0l1.532-13.279-0.022001-0.016006c0.327-4.627 0.368-9.329-0.228-13.586l-0.643 0.092003c0.566 4.096 0.544 8.6 0.248 13.051l-4.901-3.484c0.797-3.587-0.39-10.544-1.477-14.787 9.151-2.454 16.384-2.406 25.341 0-1.089 5.205-2.196 9.28-1.512 14.513" fill="#fff"/>
</g>
<g transform="matrix(1.25 0 0 1.2794 221.09 -397.94)">
<path d="m68.896 72.526-5.694 4.048c-0.345-5.171-0.369-10.405 0.287-15.165l-0.745-0.106c-0.695 4.947-0.647 10.411-0.267 15.788l-0.025002 0.017998 1.781 15.431c-4.628 2.785-12.061 2.785-16.688 0l1.781-15.431-0.026001-0.018997c0.381-5.376 0.427-10.84-0.265-15.787l-0.747 0.106c0.657 4.76 0.632 9.994 0.288 15.166l-5.695-4.049c0.915-4.119-0.444-12.289-1.717-17.184 10.643-2.851 19.03-2.793 29.449 0-1.577 6.066-2.347 11.514-1.717 17.184" fill="#fff"/>
</g>
<g transform="matrix(1.25 0 0 1.2794 221.09 -397.94)">
<path d="m97.252 71.145-4.9 3.483c-0.298-4.45-0.319-8.954 0.247-13.05l-0.641-0.092003c-0.597 4.257-0.557 8.959-0.229 13.586l-0.024002 0.016006 1.533 13.279c-3.984 2.397-10.375 2.397-14.36 0l1.532-13.279-0.021004-0.016006c0.327-4.627 0.367-9.329-0.229-13.586l-0.64201 0.092003c0.566 4.096 0.543 8.6 0.248 13.051l-4.901-3.484c0.798-3.591-0.391-10.54-1.478-14.788 9.16-2.456 16.379-2.402 25.342 0-1.352 5.285-2.029 9.831-1.477 14.788" fill="#fff"/>
</g>
</g>
</g>
<text transform="matrix(1.0824 0 0 .9193 -13.321 2.4399)" x="181.185449" y="120.600262" fill="#ffffff" font-family="'Trebuchet MS', Gadget, sans-serif" font-size="92" stroke="#000" stroke-width="0" xml:space="preserve">COLIVING</text>
</g>
</svg>
